<svg width="37" height="37" viewBox="0 0 37 37" fill="none" xmlns="http://www.w3.org/2000/svg">
<path d="M1.23223 32.2322C0.255922 33.2085 0.255922 34.7915 1.23223 35.7678C2.20854 36.7441 3.79146 36.7441 4.76777 35.7678L1.23223 32.2322ZM36.5 3C36.5 1.61929 35.3807 0.5 34 0.5L11.5 0.5C10.1193 0.5 9 1.61929 9 3C9 4.38071 10.1193 5.5 11.5 5.5H31.5V25.5C31.5 26.8807 32.6193 28 34 28C35.3807 28 36.5 26.8807 36.5 25.5L36.5 3ZM4.76777 35.7678L35.7678 4.76777L32.2322 1.23223L1.23223 32.2322L4.76777 35.7678Z" fill="white"/>
</svg>
